<mxfile host="Electron" modified="2024-05-21T13:38:31.978Z" agent="Mozilla/5.0 (Windows NT 10.0; Win64; x64) AppleWebKit/537.36 (KHTML, like Gecko) draw.io/24.4.0 Chrome/120.0.6099.109 Electron/28.1.0 Safari/537.36" etag="Bs1ksDqXGoXO4N12TEBV" version="24.4.0" type="device">
  <diagram name="Page-1" id="5d7acffa-a066-3a61-03fe-96351882024d">
    <mxGraphModel dx="2793" dy="938" grid="0" gridSize="10" guides="1" tooltips="1" connect="1" arrows="1" fold="1" page="0" pageScale="1" pageWidth="1100" pageHeight="850" background="#B3B3B3" math="0" shadow="0">
      <root>
        <mxCell id="0" />
        <mxCell id="1" parent="0" />
        <mxCell id="RqJKez_DWz7oM9gKlU9L-29" value="addr: &amp;amp;" style="fontStyle=0;dashed=1;html=1;whiteSpace=wrap;" vertex="1" parent="1">
          <mxGeometry x="-1034" y="455.5" width="88" height="22" as="geometry" />
        </mxCell>
        <mxCell id="RqJKez_DWz7oM9gKlU9L-26" value="" style="rounded=1;whiteSpace=wrap;html=1;" vertex="1" parent="1">
          <mxGeometry x="-1000" y="416.5" width="64.5" height="39" as="geometry" />
        </mxCell>
        <mxCell id="RqJKez_DWz7oM9gKlU9L-27" value="Slave" style="text;html=1;align=center;verticalAlign=middle;whiteSpace=wrap;rounded=0;" vertex="1" parent="1">
          <mxGeometry x="-997.75" y="422.5" width="60" height="30" as="geometry" />
        </mxCell>
        <mxCell id="RqJKez_DWz7oM9gKlU9L-14" value="" style="rounded=0;whiteSpace=wrap;html=1;" vertex="1" parent="1">
          <mxGeometry x="-754" y="390" width="375" height="104" as="geometry" />
        </mxCell>
        <mxCell id="RqJKez_DWz7oM9gKlU9L-10" value="" style="rounded=1;whiteSpace=wrap;html=1;" vertex="1" parent="1">
          <mxGeometry x="-611" y="160" width="64.5" height="39" as="geometry" />
        </mxCell>
        <mxCell id="RqJKez_DWz7oM9gKlU9L-2" value="АРМ" style="ellipse;shape=cloud;whiteSpace=wrap;html=1;align=center;" vertex="1" parent="1">
          <mxGeometry x="-631" y="115" width="100" height="55" as="geometry" />
        </mxCell>
        <mxCell id="RqJKez_DWz7oM9gKlU9L-3" value="" style="image;aspect=fixed;perimeter=ellipsePerimeter;html=1;align=center;shadow=0;dashed=0;spacingTop=3;image=img/lib/active_directory/web_server.svg;" vertex="1" parent="1">
          <mxGeometry x="-593" y="77" width="40" height="50" as="geometry" />
        </mxCell>
        <mxCell id="RqJKez_DWz7oM9gKlU9L-4" value="Плата" style="text;html=1;align=center;verticalAlign=middle;whiteSpace=wrap;rounded=0;" vertex="1" parent="1">
          <mxGeometry x="-606.5" y="427" width="60" height="30" as="geometry" />
        </mxCell>
        <mxCell id="RqJKez_DWz7oM9gKlU9L-5" value="" style="rounded=1;whiteSpace=wrap;html=1;" vertex="1" parent="1">
          <mxGeometry x="-608.75" y="351" width="64.5" height="39" as="geometry" />
        </mxCell>
        <mxCell id="RqJKez_DWz7oM9gKlU9L-6" value="U3&lt;div&gt;Slave&lt;/div&gt;" style="text;html=1;align=center;verticalAlign=middle;whiteSpace=wrap;rounded=0;" vertex="1" parent="1">
          <mxGeometry x="-606.5" y="355.5" width="60" height="30" as="geometry" />
        </mxCell>
        <mxCell id="RqJKez_DWz7oM9gKlU9L-7" value="" style="endArrow=halfCircle;html=1;rounded=0;entryX=0.5;entryY=0;entryDx=0;entryDy=0;strokeColor=#000000;exitX=0.5;exitY=1;exitDx=0;exitDy=0;startArrow=halfCircle;startFill=0;endFill=0;" edge="1" parent="1" source="RqJKez_DWz7oM9gKlU9L-10" target="RqJKez_DWz7oM9gKlU9L-5">
          <mxGeometry width="50" height="50" relative="1" as="geometry">
            <mxPoint x="-577" y="198" as="sourcePoint" />
            <mxPoint x="-602" y="336" as="targetPoint" />
          </mxGeometry>
        </mxCell>
        <mxCell id="RqJKez_DWz7oM9gKlU9L-8" value="Master&lt;div&gt;&lt;br&gt;&lt;/div&gt;" style="text;html=1;align=center;verticalAlign=middle;whiteSpace=wrap;rounded=0;" vertex="1" parent="1">
          <mxGeometry x="-608.75" y="174" width="60" height="30" as="geometry" />
        </mxCell>
        <mxCell id="RqJKez_DWz7oM9gKlU9L-11" value="3-я функция&amp;nbsp;&lt;div&gt;16-я функция&lt;/div&gt;" style="text;html=1;align=center;verticalAlign=middle;whiteSpace=wrap;rounded=0;fontColor=#000000;" vertex="1" parent="1">
          <mxGeometry x="-523" y="263" width="95" height="30" as="geometry" />
        </mxCell>
        <mxCell id="RqJKez_DWz7oM9gKlU9L-13" value="addr: 1" style="fontStyle=0;dashed=1;html=1;whiteSpace=wrap;" vertex="1" parent="1">
          <mxGeometry x="-617" y="390" width="88" height="22" as="geometry" />
        </mxCell>
        <mxCell id="RqJKez_DWz7oM9gKlU9L-17" value="" style="rounded=1;whiteSpace=wrap;html=1;" vertex="1" parent="1">
          <mxGeometry x="-818.5" y="418" width="64.5" height="39" as="geometry" />
        </mxCell>
        <mxCell id="RqJKez_DWz7oM9gKlU9L-18" value="U1&lt;div&gt;Master&lt;/div&gt;" style="text;html=1;align=center;verticalAlign=middle;whiteSpace=wrap;rounded=0;" vertex="1" parent="1">
          <mxGeometry x="-816.25" y="422.5" width="60" height="30" as="geometry" />
        </mxCell>
        <mxCell id="RqJKez_DWz7oM9gKlU9L-19" value="" style="rounded=1;whiteSpace=wrap;html=1;" vertex="1" parent="1">
          <mxGeometry x="-379" y="418" width="64.5" height="39" as="geometry" />
        </mxCell>
        <mxCell id="RqJKez_DWz7oM9gKlU9L-20" value="U2&lt;div&gt;Slave&lt;/div&gt;" style="text;html=1;align=center;verticalAlign=middle;whiteSpace=wrap;rounded=0;" vertex="1" parent="1">
          <mxGeometry x="-376.75" y="422.5" width="60" height="30" as="geometry" />
        </mxCell>
        <mxCell id="RqJKez_DWz7oM9gKlU9L-21" value="" style="rounded=1;whiteSpace=wrap;html=1;" vertex="1" parent="1">
          <mxGeometry x="-724" y="494" width="64.5" height="39" as="geometry" />
        </mxCell>
        <mxCell id="RqJKez_DWz7oM9gKlU9L-22" value="U5&lt;div&gt;Master&lt;/div&gt;" style="text;html=1;align=center;verticalAlign=middle;whiteSpace=wrap;rounded=0;" vertex="1" parent="1">
          <mxGeometry x="-721.75" y="499" width="60" height="29.5" as="geometry" />
        </mxCell>
        <mxCell id="RqJKez_DWz7oM9gKlU9L-23" value="" style="rounded=1;whiteSpace=wrap;html=1;" vertex="1" parent="1">
          <mxGeometry x="-479" y="494" width="64.5" height="39" as="geometry" />
        </mxCell>
        <mxCell id="RqJKez_DWz7oM9gKlU9L-24" value="U4&lt;div&gt;Master&lt;/div&gt;" style="text;html=1;align=center;verticalAlign=middle;whiteSpace=wrap;rounded=0;" vertex="1" parent="1">
          <mxGeometry x="-476.75" y="498.5" width="60" height="30" as="geometry" />
        </mxCell>
        <mxCell id="RqJKez_DWz7oM9gKlU9L-25" value="МОПС" style="ellipse;shape=cloud;whiteSpace=wrap;html=1;align=center;" vertex="1" parent="1">
          <mxGeometry x="-1082" y="410" width="100" height="55" as="geometry" />
        </mxCell>
        <mxCell id="RqJKez_DWz7oM9gKlU9L-28" value="" style="endArrow=halfCircle;html=1;rounded=0;entryX=0;entryY=0.5;entryDx=0;entryDy=0;strokeColor=#000000;exitX=1;exitY=0.5;exitDx=0;exitDy=0;startArrow=halfCircle;startFill=0;endFill=0;" edge="1" parent="1" source="RqJKez_DWz7oM9gKlU9L-27" target="RqJKez_DWz7oM9gKlU9L-18">
          <mxGeometry width="50" height="50" relative="1" as="geometry">
            <mxPoint x="-862" y="221" as="sourcePoint" />
            <mxPoint x="-859" y="373" as="targetPoint" />
          </mxGeometry>
        </mxCell>
        <mxCell id="RqJKez_DWz7oM9gKlU9L-32" value="3-я функция&amp;nbsp;&lt;div&gt;16-я функция&lt;/div&gt;" style="text;html=1;align=center;verticalAlign=middle;whiteSpace=wrap;rounded=0;fontColor=#000000;" vertex="1" parent="1">
          <mxGeometry x="-932" y="366" width="95" height="30" as="geometry" />
        </mxCell>
        <mxCell id="RqJKez_DWz7oM9gKlU9L-35" value="" style="curved=1;endArrow=classic;html=1;rounded=0;exitX=0;exitY=0.25;exitDx=0;exitDy=0;strokeColor=#000000;" edge="1" parent="1" source="RqJKez_DWz7oM9gKlU9L-18">
          <mxGeometry width="50" height="50" relative="1" as="geometry">
            <mxPoint x="-946" y="324" as="sourcePoint" />
            <mxPoint x="-928" y="424" as="targetPoint" />
            <Array as="points">
              <mxPoint x="-882" y="371" />
            </Array>
          </mxGeometry>
        </mxCell>
        <mxCell id="RqJKez_DWz7oM9gKlU9L-39" value="" style="curved=1;endArrow=classic;html=1;rounded=0;exitX=0.5;exitY=1;exitDx=0;exitDy=0;strokeColor=#000000;" edge="1" parent="1" source="RqJKez_DWz7oM9gKlU9L-8">
          <mxGeometry width="50" height="50" relative="1" as="geometry">
            <mxPoint x="-393" y="333" as="sourcePoint" />
            <mxPoint x="-570" y="341" as="targetPoint" />
            <Array as="points">
              <mxPoint x="-459" y="274" />
            </Array>
          </mxGeometry>
        </mxCell>
        <mxCell id="RqJKez_DWz7oM9gKlU9L-40" value="addr: &amp;amp;" style="fontStyle=0;dashed=1;html=1;whiteSpace=wrap;" vertex="1" parent="1">
          <mxGeometry x="-143" y="435" width="88" height="22" as="geometry" />
        </mxCell>
        <mxCell id="RqJKez_DWz7oM9gKlU9L-41" value="" style="rounded=1;whiteSpace=wrap;html=1;" vertex="1" parent="1">
          <mxGeometry x="-198.25" y="418" width="64.5" height="39" as="geometry" />
        </mxCell>
        <mxCell id="RqJKez_DWz7oM9gKlU9L-42" value="Slave" style="text;html=1;align=center;verticalAlign=middle;whiteSpace=wrap;rounded=0;" vertex="1" parent="1">
          <mxGeometry x="-196" y="422.5" width="60" height="30" as="geometry" />
        </mxCell>
        <mxCell id="RqJKez_DWz7oM9gKlU9L-45" value="МУПС" style="ellipse;shape=cloud;whiteSpace=wrap;html=1;align=center;" vertex="1" parent="1">
          <mxGeometry x="-175" y="385.5" width="100" height="55" as="geometry" />
        </mxCell>
        <mxCell id="RqJKez_DWz7oM9gKlU9L-46" value="" style="endArrow=halfCircle;html=1;rounded=0;entryX=0;entryY=0.5;entryDx=0;entryDy=0;strokeColor=#000000;exitX=1;exitY=0.5;exitDx=0;exitDy=0;startArrow=halfCircle;startFill=0;endFill=0;" edge="1" parent="1">
          <mxGeometry width="50" height="50" relative="1" as="geometry">
            <mxPoint x="-316.75" y="437.05" as="sourcePoint" />
            <mxPoint x="-195.25" y="437.05" as="targetPoint" />
          </mxGeometry>
        </mxCell>
        <mxCell id="RqJKez_DWz7oM9gKlU9L-47" value="3-я функция&amp;nbsp;&lt;div&gt;16-я функция&lt;/div&gt;" style="text;html=1;align=center;verticalAlign=middle;whiteSpace=wrap;rounded=0;fontColor=#000000;" vertex="1" parent="1">
          <mxGeometry x="-308" y="369" width="95" height="30" as="geometry" />
        </mxCell>
        <mxCell id="RqJKez_DWz7oM9gKlU9L-48" value="" style="curved=1;endArrow=classic;html=1;rounded=0;strokeColor=#000000;" edge="1" parent="1">
          <mxGeometry width="50" height="50" relative="1" as="geometry">
            <mxPoint x="-309" y="431" as="sourcePoint" />
            <mxPoint x="-206" y="435" as="targetPoint" />
            <Array as="points">
              <mxPoint x="-271" y="368" />
            </Array>
          </mxGeometry>
        </mxCell>
        <mxCell id="RqJKez_DWz7oM9gKlU9L-49" value="addr: &amp;amp;" style="fontStyle=0;dashed=1;html=1;whiteSpace=wrap;" vertex="1" parent="1">
          <mxGeometry x="-758" y="685.5" width="88" height="22" as="geometry" />
        </mxCell>
        <mxCell id="RqJKez_DWz7oM9gKlU9L-50" value="" style="rounded=1;whiteSpace=wrap;html=1;" vertex="1" parent="1">
          <mxGeometry x="-724" y="646.5" width="64.5" height="39" as="geometry" />
        </mxCell>
        <mxCell id="RqJKez_DWz7oM9gKlU9L-51" value="Slave" style="text;html=1;align=center;verticalAlign=middle;whiteSpace=wrap;rounded=0;" vertex="1" parent="1">
          <mxGeometry x="-721.75" y="652.5" width="60" height="30" as="geometry" />
        </mxCell>
        <mxCell id="RqJKez_DWz7oM9gKlU9L-52" value="Плата&lt;div&gt;упр.&lt;/div&gt;" style="ellipse;shape=cloud;whiteSpace=wrap;html=1;align=center;" vertex="1" parent="1">
          <mxGeometry x="-806" y="640" width="100" height="55" as="geometry" />
        </mxCell>
        <mxCell id="RqJKez_DWz7oM9gKlU9L-53" value="" style="endArrow=halfCircle;html=1;rounded=0;entryX=0.5;entryY=0;entryDx=0;entryDy=0;strokeColor=#000000;exitX=0.5;exitY=1;exitDx=0;exitDy=0;startArrow=halfCircle;startFill=0;endFill=0;" edge="1" parent="1" source="RqJKez_DWz7oM9gKlU9L-21" target="RqJKez_DWz7oM9gKlU9L-50">
          <mxGeometry width="50" height="50" relative="1" as="geometry">
            <mxPoint x="-905" y="592" as="sourcePoint" />
            <mxPoint x="-783" y="592" as="targetPoint" />
          </mxGeometry>
        </mxCell>
        <mxCell id="RqJKez_DWz7oM9gKlU9L-54" value="&lt;div&gt;16-я функция&lt;/div&gt;" style="text;html=1;align=center;verticalAlign=middle;whiteSpace=wrap;rounded=0;fontColor=#000000;" vertex="1" parent="1">
          <mxGeometry x="-814" y="575" width="95" height="30" as="geometry" />
        </mxCell>
        <mxCell id="RqJKez_DWz7oM9gKlU9L-55" value="" style="curved=1;endArrow=classic;html=1;rounded=0;strokeColor=#000000;" edge="1" parent="1">
          <mxGeometry width="50" height="50" relative="1" as="geometry">
            <mxPoint x="-699" y="540" as="sourcePoint" />
            <mxPoint x="-699" y="642" as="targetPoint" />
            <Array as="points">
              <mxPoint x="-755" y="587" />
            </Array>
          </mxGeometry>
        </mxCell>
        <mxCell id="RqJKez_DWz7oM9gKlU9L-56" value="addr: &amp;amp;" style="fontStyle=0;dashed=1;html=1;whiteSpace=wrap;" vertex="1" parent="1">
          <mxGeometry x="-513" y="685.5" width="88" height="22" as="geometry" />
        </mxCell>
        <mxCell id="RqJKez_DWz7oM9gKlU9L-57" value="" style="rounded=1;whiteSpace=wrap;html=1;" vertex="1" parent="1">
          <mxGeometry x="-479" y="646.5" width="64.5" height="39" as="geometry" />
        </mxCell>
        <mxCell id="RqJKez_DWz7oM9gKlU9L-58" value="Slave" style="text;html=1;align=center;verticalAlign=middle;whiteSpace=wrap;rounded=0;" vertex="1" parent="1">
          <mxGeometry x="-476.75" y="652.5" width="60" height="30" as="geometry" />
        </mxCell>
        <mxCell id="RqJKez_DWz7oM9gKlU9L-59" value="Плата&lt;div&gt;упр.&lt;/div&gt;" style="ellipse;shape=cloud;whiteSpace=wrap;html=1;align=center;" vertex="1" parent="1">
          <mxGeometry x="-561" y="640" width="100" height="55" as="geometry" />
        </mxCell>
        <mxCell id="RqJKez_DWz7oM9gKlU9L-60" value="" style="endArrow=halfCircle;html=1;rounded=0;entryX=0.5;entryY=0;entryDx=0;entryDy=0;strokeColor=#000000;exitX=0.5;exitY=1;exitDx=0;exitDy=0;startArrow=halfCircle;startFill=0;endFill=0;" edge="1" parent="1" target="RqJKez_DWz7oM9gKlU9L-57">
          <mxGeometry width="50" height="50" relative="1" as="geometry">
            <mxPoint x="-447" y="533" as="sourcePoint" />
            <mxPoint x="-538" y="592" as="targetPoint" />
          </mxGeometry>
        </mxCell>
        <mxCell id="RqJKez_DWz7oM9gKlU9L-61" value="&lt;div&gt;16-я функция&lt;/div&gt;" style="text;html=1;align=center;verticalAlign=middle;whiteSpace=wrap;rounded=0;fontColor=#000000;" vertex="1" parent="1">
          <mxGeometry x="-569" y="575" width="95" height="30" as="geometry" />
        </mxCell>
        <mxCell id="RqJKez_DWz7oM9gKlU9L-62" value="" style="curved=1;endArrow=classic;html=1;rounded=0;strokeColor=#000000;" edge="1" parent="1">
          <mxGeometry width="50" height="50" relative="1" as="geometry">
            <mxPoint x="-454" y="540" as="sourcePoint" />
            <mxPoint x="-454" y="642" as="targetPoint" />
            <Array as="points">
              <mxPoint x="-510" y="587" />
            </Array>
          </mxGeometry>
        </mxCell>
        <mxCell id="RqJKez_DWz7oM9gKlU9L-63" value="ТБИ" style="rounded=1;whiteSpace=wrap;html=1;" vertex="1" parent="1">
          <mxGeometry x="-1066" y="586.5" width="120" height="60" as="geometry" />
        </mxCell>
        <mxCell id="RqJKez_DWz7oM9gKlU9L-64" value="" style="curved=1;endArrow=classic;html=1;rounded=0;strokeColor=#000000;exitX=0.093;exitY=0.6;exitDx=0;exitDy=0;exitPerimeter=0;entryX=0.5;entryY=1;entryDx=0;entryDy=0;" edge="1" parent="1" source="RqJKez_DWz7oM9gKlU9L-52" target="RqJKez_DWz7oM9gKlU9L-63">
          <mxGeometry width="50" height="50" relative="1" as="geometry">
            <mxPoint x="-894" y="711" as="sourcePoint" />
            <mxPoint x="-894" y="813" as="targetPoint" />
            <Array as="points">
              <mxPoint x="-950" y="758" />
            </Array>
          </mxGeometry>
        </mxCell>
        <mxCell id="RqJKez_DWz7oM9gKlU9L-65" value="" style="curved=1;endArrow=classic;html=1;rounded=0;strokeColor=#000000;exitX=0.5;exitY=0;exitDx=0;exitDy=0;entryX=0.5;entryY=1;entryDx=0;entryDy=0;" edge="1" parent="1" source="RqJKez_DWz7oM9gKlU9L-63" target="RqJKez_DWz7oM9gKlU9L-29">
          <mxGeometry width="50" height="50" relative="1" as="geometry">
            <mxPoint x="-1061" y="561.5" as="sourcePoint" />
            <mxPoint x="-1270" y="535.5" as="targetPoint" />
            <Array as="points">
              <mxPoint x="-1048" y="526" />
            </Array>
          </mxGeometry>
        </mxCell>
        <mxCell id="RqJKez_DWz7oM9gKlU9L-66" value="ТБИ&amp;nbsp;&lt;div&gt;+&lt;/div&gt;&lt;div&gt;Реле&lt;/div&gt;" style="rounded=1;whiteSpace=wrap;html=1;" vertex="1" parent="1">
          <mxGeometry x="-295" y="580" width="120" height="60" as="geometry" />
        </mxCell>
        <mxCell id="RqJKez_DWz7oM9gKlU9L-68" value="" style="curved=1;endArrow=classic;html=1;rounded=0;strokeColor=#000000;exitX=1;exitY=0.5;exitDx=0;exitDy=0;entryX=0.5;entryY=1;entryDx=0;entryDy=0;" edge="1" parent="1" source="RqJKez_DWz7oM9gKlU9L-58" target="RqJKez_DWz7oM9gKlU9L-66">
          <mxGeometry width="50" height="50" relative="1" as="geometry">
            <mxPoint x="-196" y="808" as="sourcePoint" />
            <mxPoint x="-405" y="782" as="targetPoint" />
            <Array as="points">
              <mxPoint x="-327" y="736" />
            </Array>
          </mxGeometry>
        </mxCell>
        <mxCell id="RqJKez_DWz7oM9gKlU9L-69" value="" style="curved=1;endArrow=classic;html=1;rounded=0;strokeColor=#000000;exitX=1;exitY=0.5;exitDx=0;exitDy=0;entryX=0.5;entryY=1;entryDx=0;entryDy=0;" edge="1" parent="1" source="RqJKez_DWz7oM9gKlU9L-66" target="RqJKez_DWz7oM9gKlU9L-40">
          <mxGeometry width="50" height="50" relative="1" as="geometry">
            <mxPoint x="-164" y="608" as="sourcePoint" />
            <mxPoint x="18" y="580" as="targetPoint" />
            <Array as="points">
              <mxPoint x="-68" y="566" />
            </Array>
          </mxGeometry>
        </mxCell>
      </root>
    </mxGraphModel>
  </diagram>
</mxfile>
